<svg xmlns="http://www.w3.org/2000/svg" shape-rendering="crispEdges" viewBox="0 -0.5 16 16"><path stroke="#000002" d="M0 5h1M0 6h1"/><path stroke="#000" d="M1 5h5m1 0h2m1 0h3m1 0h2m-1 2h1m-1 2h1M0 10h1m3 0h2m1 0h2m2 0h1m1 0h1"/><path stroke="#020000" d="M6 5h1m8 1h1m-4 4h1"/><path stroke="#020200" d="M9 5h1m-9 5h1"/><path stroke="#010000" d="M13 5h1m1 3h1m-7 2h1"/><path stroke="#c0c0c2" d="M1 6h1m2 0h1m9 0h1M1 8h1M1 9h1"/><path stroke="silver" d="M2 6h2m3 0h1m1 0h5M3 7h1m1 0h3m3 0h2M2 8h3m3 0h2m2 0h2M4 9h2m1 0h2m1 0h1m2 0h1"/><path stroke="#c0c3c0" d="M5 6h1"/><path stroke="#c0c2c0" d="M6 6h1m1 1h1M6 9h1m2 0h1"/><path stroke="#c0c0c1" d="M8 6h1M1 7h1m8 1h1"/><path stroke="#000100" d="M0 7h1M0 9h1m2 1h1m6 0h1"/><path stroke="#c1c0c0" d="M2 7h1m7 0h1M7 8h1m3 0h1"/><path stroke="#c0c1c0" d="M4 7h1"/><path stroke="#c2c0c1" d="M9 7h1m4 1h1"/><path stroke="#c2c1c0" d="M13 7h1"/><path stroke="#c0c1c2" d="M14 7h1"/><path stroke="#000101" d="M0 8h1"/><path stroke="#c2c0c0" d="M5 8h1M2 9h1m9 0h1m1 0h1"/><path stroke="#c2c0c2" d="M6 8h1M3 9h1"/><path stroke="#c2c2c2" d="M11 9h1"/><path stroke="#010001" d="M2 10h1"/><path stroke="#000200" d="M6 10h1m7 0h1"/><path stroke="#000201" d="M15 10h1"/></svg>