<svg xmlns="http://www.w3.org/2000/svg" shape-rendering="crispEdges" viewBox="0 -0.5 16 16"><path stroke="#000" d="M2 0h5m2 0h2m1 0h2M2 1h1m3 0h1m2 0h1m3 0h1M6 2h1m2 0h1m3 0h1M6 3h1m2 0h1m3 0h1M2 4h1m3 0h1m2 0h1m3 0h1M6 5h1m2 0h1m3 0h1M6 6h1m2 0h1m3 0h1M2 7h1m6 0h1m3 0h1M2 8h1m3 0h1m2 0h1m3 0h1M2 9h1m3 0h1m2 0h1m3 0h1M2 10h1m3 0h1m2 0h1m3 0h1M2 11h1m3 0h1m2 0h1m3 0h1m-5 1h1m3 0h1M2 13h1m3 0h1m-1 1h1m2 0h1m3 0h1M2 15h5m2 0h3"/><path stroke="#010000" d="M11 0h1M2 12h1m10 1h1"/><path stroke="silver" d="M3 1h3m5 0h1M3 2h3m4 0h2M4 3h2m4 0h3M3 4h1m1 0h1m4 0h2M4 5h2m4 0h3M3 6h3m5 0h1M3 7h3m4 0h1m1 0h1M3 8h2m5 0h1m1 0h1M3 9h1m1 0h1m4 0h1m-8 1h3m4 0h1m1 0h1M3 11h2m5 0h1m1 0h1M3 12h3m4 0h2m-9 1h2m5 0h3M3 14h3m4 0h3"/><path stroke="#c1c0c0" d="M10 1h1M4 4h1M3 5h1m7 5h1"/><path stroke="#c0c2c2" d="M12 1h1"/><path stroke="#000002" d="M2 2h1M2 5h1m-1 9h1"/><path stroke="#c0c0c1" d="M12 2h1m-2 7h2"/><path stroke="#000001" d="M2 3h1m3 9h1"/><path stroke="#c0c0c2" d="M3 3h1m8 3h1M5 8h1"/><path stroke="#c0c2c0" d="M12 4h1m-1 8h1"/><path stroke="#000100" d="M2 6h1m9 9h2"/><path stroke="#c2c1c0" d="M10 6h1"/><path stroke="#020200" d="M6 7h1"/><path stroke="#c0c1c0" d="M11 7h1m-7 6h1"/><path stroke="#c0c2c1" d="M11 8h1"/><path stroke="#c2c0c0" d="M4 9h1m0 2h1m5 0h1"/><path stroke="#000200" d="M9 13h1"/></svg>