<svg xmlns="http://www.w3.org/2000/svg" shape-rendering="crispEdges" viewBox="0 -0.5 16 16"><path stroke="#000" d="M2 0h1M2 1h1m2 0h1M2 2h1m3 0h1M2 3h1m4 0h1M2 4h1m6 0h1m0 1h1M2 6h1M2 7h1m10 0h1m-1 1h1M2 9h1m9 0h1m-2 1h1m-4 2h1m-7 1h1m-1 1h1m2 0h1m-4 1h2"/><path stroke="#020100" d="M3 0h1"/><path stroke="#c0c1c0" d="M3 1h1m1 4h1m2 0h1M7 9h1m-2 1h1m1 0h1m-6 4h1"/><path stroke="#010000" d="M4 1h1m5 9h1m-7 4h1"/><path stroke="silver" d="M3 2h1m1 0h1M3 3h1m0 1h5M3 5h2m2 0h1M3 6h3m1 0h1m1 0h1M5 7h7M4 8h1m1 0h3m2 0h1M3 9h2m6 0h1m-9 1h2m2 0h1m1 0h1m-7 1h1m1 0h1m1 0h1m-3 1h2m-3 1h1"/><path stroke="#c0c0c2" d="M4 2h1m1 1h1M6 5h1m5 2h1m-3 2h1"/><path stroke="#c2c0c0" d="M4 3h2m3 5h1M5 9h1m-2 2h1"/><path stroke="#000002" d="M8 3h1"/><path stroke="#c2c0c1" d="M3 4h1"/><path stroke="#020001" d="M2 5h1"/><path stroke="#c1c0c2" d="M9 5h1"/><path stroke="#010002" d="M11 5h1"/><path stroke="#c2c0c2" d="M6 6h1m-3 6h1"/><path stroke="#c0c2c0" d="M8 6h1M3 7h1m8 1h1M6 9h1"/><path stroke="#c1c0c0" d="M10 6h2M4 7h1m0 1h1m-1 2h1m-3 2h1m-1 1h1"/><path stroke="#030000" d="M12 6h1"/><path stroke="#000003" d="M2 8h1"/><path stroke="#c0c2c1" d="M3 8h1m6 0h1"/><path stroke="#c0c0c1" d="M8 9h2"/><path stroke="#000200" d="M2 10h1m3 3h1"/><path stroke="#000100" d="M2 11h1m-1 1h1"/><path stroke="#c2c1c0" d="M6 11h1"/><path stroke="#c2c2c1" d="M8 11h1"/><path stroke="#000101" d="M9 11h1"/><path stroke="#020000" d="M7 12h1"/><path stroke="#c0c2c2" d="M5 13h1"/></svg>