<svg xmlns="http://www.w3.org/2000/svg" shape-rendering="crispEdges" viewBox="0 -0.5 16 16"><path stroke="#000" d="M5 0h3m2 0h1M5 1h1m4 0h1M5 2h1m4 0h1M5 3h1m4 0h1M5 4h1m4 0h1M0 5h6m4 0h5m0 1h1M0 7h1m14 0h1M0 8h1m14 0h1M0 9h1m14 0h1M0 10h2m1 0h2m5 0h1m1 0h3M5 11h1m4 0h1m-6 1h1m4 0h1m-6 1h1m4 0h1m-1 1h1m-6 1h6"/><path stroke="#000002" d="M8 0h1M2 10h1"/><path stroke="#020000" d="M9 0h1M5 10h1"/><path stroke="silver" d="M6 1h4M6 2h1m2 0h1M7 3h1m1 0h1M6 4h4M6 5h3M1 6h2m1 0h9m1 0h1M1 7h2m1 0h1m2 0h1m1 0h5M1 8h10m1 0h2M1 9h14m-9 1h4m-4 1h4m-4 1h4m-4 1h4m-3 1h3"/><path stroke="#c0c1c0" d="M7 2h1m0 5h1"/><path stroke="#c0c2c0" d="M8 2h1M3 7h1m2 0h1"/><path stroke="#c0c0c1" d="M6 3h1m1 0h1m2 5h1"/><path stroke="#c2c0c0" d="M9 5h1M3 6h1"/><path stroke="#000200" d="M15 5h1"/><path stroke="#000100" d="M0 6h1m4 8h1"/><path stroke="#c0c0c2" d="M13 6h1m0 1h1m-1 1h1"/><path stroke="#c1c0c0" d="M5 7h1m0 7h1"/><path stroke="#000001" d="M11 10h1"/><path stroke="#010000" d="M15 10h1"/></svg>