<svg xmlns="http://www.w3.org/2000/svg" shape-rendering="crispEdges" viewBox="0 -0.5 16 16"><path stroke="#000" d="M0 0h1m1 0h1m3 0h1m5 0h3M0 1h1m2 0h1m2 0h1m2 0h1m5 0h1M0 2h1m11 0h1m2 0h1M4 3h1m1 0h1m8 0h1M0 4h1m3 0h1m5 0h1m4 0h1M0 5h1m4 0h2m5 0h1M0 6h1m4 0h2m8 0h1M0 7h1m5 0h1m5 0h1M6 8h1m5 0h1m2 0h1M5 9h2m4 0h2m2 0h1M5 10h2m4 0h1M0 11h1m9 0h1M0 12h1m3 0h1m1 0h1m3 0h1m1 0h1m2 0h1M0 13h1m2 0h1m11 0h1M0 14h1m5 0h1m2 0h1m5 0h1M1 15h1m4 0h2m5 0h1"/><path stroke="#020100" d="M1 0h1"/><path stroke="#000100" d="M7 0h2M4 11h1"/><path stroke="#000102" d="M15 0h1"/><path stroke="#c0c2c0" d="M1 1h1m12 2h1m-1 2h1M5 8h1m2 1h1m-1 4h1"/><path stroke="silver" d="M2 1h1m4 0h2m4 0h1M7 2h2m4 0h2M1 3h3m3 0h1m1 0h1M3 4h1m3 0h1m1 0h1m3 0h2M1 5h1m1 0h2m4 0h2m2 0h1M1 6h4m2 0h2m4 0h2M1 7h5m7 0h1M1 8h4m2 0h4m2 0h2M1 9h1m1 0h2m2 0h1m1 0h2m3 0h1M1 10h4m3 0h3m2 0h2M1 11h2m4 0h1m5 0h2M1 12h1m5 0h3m3 0h2M1 13h1m5 0h1m5 0h2M1 14h1m5 0h2m4 0h2"/><path stroke="#000002" d="M12 1h1m-3 2h1"/><path stroke="#c2c0c1" d="M14 1h1"/><path stroke="#c0c0c1" d="M1 2h2m10 1h1M9 6h2m2 3h1m-7 1h1m-6 2h1"/><path stroke="#000200" d="M3 2h1m5 0h1M6 4h1M0 9h1m5 4h1m2 0h1"/><path stroke="#000001" d="M6 2h1m8 5h1M0 8h1m11 5h1M3 14h1m-2 1h1m11 0h1"/><path stroke="#010000" d="M0 3h1m11 0h1m-1 1h1m-2 2h2M0 10h1m14 1h1M0 15h1m14 0h1"/><path stroke="#c1c0c0" d="M8 3h1m5 4h1M2 9h1"/><path stroke="#c0c1c2" d="M1 4h1"/><path stroke="#c2c0c0" d="M2 4h1m5 1h1"/><path stroke="#c1c0c1" d="M8 4h1m-1 7h1"/><path stroke="#c0c1c0" d="M2 5h1m5 2h1m2 1h1M2 14h1"/><path stroke="#c0c0c2" d="M7 5h1M7 7h1m2 0h2m-9 4h1m5 0h1"/><path stroke="#000101" d="M11 5h1"/><path stroke="#010200" d="M15 5h1"/><path stroke="#c2c2c0" d="M9 7h1"/><path stroke="#030000" d="M12 10h1"/><path stroke="#020000" d="M15 10h1m-4 1h1m-1 3h1"/><path stroke="#010002" d="M6 11h1"/><path stroke="#c1c1c0" d="M3 12h1"/><path stroke="#c2c1c2" d="M2 13h1"/><path stroke="#000201" d="M8 15h1"/><path stroke="#000303" d="M12 15h1"/></svg>