<svg xmlns="http://www.w3.org/2000/svg" shape-rendering="crispEdges" viewBox="0 -0.5 16 16"><path stroke="#000100" d="M7 1h1M4 4h1"/><path stroke="#000" d="M6 2h1m1 0h1M5 3h1m2 1h1M0 5h3m5 0h1M8 7h1M0 8h1m7 0h1M8 9h1m-6 1h1m0 1h1m3 0h1m-4 1h1m2 0h1m-3 1h1"/><path stroke="#c1c1c0" d="M7 2h1"/><path stroke="silver" d="M6 3h2M5 4h2M4 5h2M4 6h2m1 0h1M6 7h1M6 8h1M6 9h2m-3 1h3m-3 1h3m-2 1h2m-1 1h1"/><path stroke="#000001" d="M8 3h1M0 6h1M0 7h1m-1 3h1m7 3h1"/><path stroke="#c2c0c0" d="M7 4h1M4 9h2"/><path stroke="#010000" d="M3 5h1m4 1h1m-1 4h1"/><path stroke="#c0c3c0" d="M6 5h1"/><path stroke="#c0c0c2" d="M7 5h1M5 7h1m1 1h1"/><path stroke="#a3a0a0" d="M1 6h1"/><path stroke="#a0a0a0" d="M2 6h2M1 7h1m1 1h1M1 9h1m1 0h1"/><path stroke="#c0c1c0" d="M6 6h1"/><path stroke="#a0a0a1" d="M2 7h2"/><path stroke="#c1c0c0" d="M4 7h1M4 8h2"/><path stroke="#c2c2c2" d="M7 7h1"/><path stroke="#a0a0a2" d="M1 8h1m0 1h1"/><path stroke="#a3a0a2" d="M2 8h1"/><path stroke="#000300" d="M0 9h1m6 5h1"/><path stroke="#000002" d="M1 10h1"/><path stroke="#000200" d="M2 10h1"/><path stroke="#c0c2c2" d="M4 10h1"/></svg>