<svg xmlns="http://www.w3.org/2000/svg" shape-rendering="crispEdges" viewBox="0 -0.5 16 16"><path stroke="#000200" d="M4 1h1M0 7h1m5 5h1"/><path stroke="#000" d="M5 1h1m7 0h2M3 2h1m2 0h1m5 0h1m2 0h1M3 3h1m4 0h1m2 0h1M8 4h1m1 0h1m3 0h1M1 5h1m3 0h1m3 0h1m3 0h1M0 6h1m11 0h1M7 7h1m3 0h1M0 8h1m5 0h1m5 0h1m0 1h1M0 10h2m12 0h1M3 11h1m11 0h1M3 12h1m4 0h1m3 0h1m2 0h1M4 13h3m1 0h1m4 0h2m-8 1h1"/><path stroke="#000002" d="M7 1h1M7 3h1m-6 7h1m1 0h1m2 1h2"/><path stroke="#ff0001" d="M4 2h1M4 3h1m3 6h1"/><path stroke="#ff0003" d="M5 2h1m4 3h1"/><path stroke="silver" d="M7 2h1M4 5h1M4 6h2m0 1h1M4 8h2M4 9h1m2 3h1"/><path stroke="#000100" d="M8 2h1M3 5h1m2 1h1m3 4h1"/><path stroke="red" d="M13 2h2M5 3h2m6 0h1M5 4h1m1 0h1m3 0h3M6 5h3m3 0h1M7 6h3M9 7h2M8 8h1m1 1h2m-7 1h3m3 0h3M4 11h1m8 0h2M4 12h1m9 0h1"/><path stroke="#ff0100" d="M12 3h1m1 0h1M5 11h2"/><path stroke="#010000" d="M15 3h1m-5 8h1"/><path stroke="#030000" d="M4 4h1"/><path stroke="#fd0000" d="M6 4h1m4 4h1"/><path stroke="#020002" d="M0 5h1m1 0h1"/><path stroke="#ff0200" d="M11 5h1M8 7h1M7 8h1m1 0h1m-5 4h1"/><path stroke="#a0a1a0" d="M1 6h1m1 0h1"/><path stroke="#a2a0a0" d="M2 6h1m0 1h1"/><path stroke="#ff0002" d="M10 6h1M6 9h1m5 0h1"/><path stroke="#ff0202" d="M11 6h1"/><path stroke="#a0a0a0" d="M1 7h1M1 8h1m1 0h1M1 9h3"/><path stroke="#a2a2a0" d="M2 7h1"/><path stroke="#c0c1c0" d="M4 7h1"/><path stroke="#c2c0c0" d="M5 7h1"/><path stroke="#a0a0a1" d="M2 8h1"/><path stroke="#ff0201" d="M10 8h1"/><path stroke="#020000" d="M0 9h1m8 0h1"/><path stroke="#010100" d="M5 9h1"/><path stroke="#fe0100" d="M7 9h1"/><path stroke="#010002" d="M3 10h1"/><path stroke="#010200" d="M8 10h1"/><path stroke="#ff0300" d="M12 11h1"/><path stroke="#fe0000" d="M13 12h1"/><path stroke="#c2c1c0" d="M7 13h1"/></svg>