<svg xmlns="http://www.w3.org/2000/svg" shape-rendering="crispEdges" viewBox="0 -0.5 16 16"><path stroke="#020000" d="M7 1h1m3 5h1M8 9h1m-3 4h1"/><path stroke="#000" d="M6 2h1m1 0h1M8 3h1m3 0h1M4 4h1m3 0h1m2 0h1m1 0h1M0 5h4m4 0h1m1 0h2m1 0h1M0 6h1m7 0h2m3 0h1M0 7h1m8 0h1m1 0h1m1 0h1M0 8h1m7 0h2m1 0h1m1 0h1M9 9h1m1 0h1m1 0h1M0 10h4m4 0h1m1 0h2m-8 1h1m3 0h1m2 0h1m1 0h1m-9 1h1m2 0h1m3 0h1m-5 1h1"/><path stroke="silver" d="M7 2h1M6 3h2M5 4h3M4 5h4M5 6h3M5 7h3M4 8h1m1 0h1M5 9h3m-3 1h3m-2 1h2m-2 1h2m-1 1h1"/><path stroke="#000001" d="M5 3h1m2 4h1"/><path stroke="#ff0" d="M12 4h1m-1 1h1m-1 1h1m-1 1h1m-1 2h1"/><path stroke="#a0a0a0" d="M1 6h1m0 1h1M1 8h1m1 0h1M1 9h3"/><path stroke="#a2a0a0" d="M2 6h1M2 8h1"/><path stroke="#a0a2a0" d="M3 6h1M1 7h1"/><path stroke="#c0c0c2" d="M4 6h1M4 7h1m2 1h1"/><path stroke="#ff6a00" d="M10 6h1m-1 2h1m-1 1h1"/><path stroke="#a0a0a1" d="M3 7h1"/><path stroke="#ff6a01" d="M10 7h1"/><path stroke="#c0c0c1" d="M5 8h1"/><path stroke="#feff02" d="M12 8h1"/><path stroke="#000100" d="M0 9h1"/><path stroke="#c1c0c0" d="M4 9h1"/><path stroke="#c0c1c0" d="M4 10h1m0 1h1"/><path stroke="#fefe00" d="M12 10h1"/><path stroke="#000002" d="M13 10h1"/><path stroke="#fdff00" d="M12 11h1"/><path stroke="#010000" d="M7 14h1"/></svg>