<svg xmlns="http://www.w3.org/2000/svg" shape-rendering="crispEdges" viewBox="0 -0.5 16 16"><path stroke="#000" d="M7 1h1m6 0h1M8 2h1m6 0h1M5 3h1m2 0h1m3 0h1m2 0h1M4 4h1m3 0h1m2 0h1m1 0h1m1 0h1M0 5h4m4 0h1m1 0h2m3 0h1M8 6h2m1 0h1m1 0h1m1 0h1M0 7h1m7 0h2m1 0h1m1 0h1M9 8h1m1 0h1m1 0h1m1 0h1M0 9h1m7 0h2m1 0h1m1 0h1m1 0h1M0 10h4m6 0h1m2 0h1m1 0h1M4 11h1m3 0h1m2 0h1m1 0h1m1 0h1M5 12h1m6 0h1m2 0h1M6 13h1m8 0h1m-9 1h1m6 0h1"/><path stroke="#020000" d="M6 2h1"/><path stroke="silver" d="M7 2h1M6 3h2M5 4h3M4 5h4M4 6h2m1 0h1M4 7h4M4 8h3M4 9h4m-4 1h3m-1 1h1m-1 1h1m0 1h1"/><path stroke="#000001" d="M13 2h1m-1 3h1M8 8h1"/><path stroke="#01ff00" d="M14 2h1m-1 1h1m-1 3h1m-1 1h1m-1 1h1m-1 1h1m-1 1h1m-1 1h1m-1 1h1m-1 1h1"/><path stroke="#010000" d="M13 3h1M8 13h1m4 0h1"/><path stroke="#ff0" d="M12 4h1m-1 1h1m-1 1h1m-1 2h1m-1 1h1"/><path stroke="#01ff02" d="M14 4h1"/><path stroke="#01fd00" d="M14 5h1"/><path stroke="#000100" d="M0 6h1M0 8h1m10 2h1m1 2h1"/><path stroke="#a0a0a0" d="M1 6h3M1 7h3M2 8h2M1 9h1m1 0h1"/><path stroke="#c2c0c0" d="M6 6h1m0 5h1"/><path stroke="#ff6a00" d="M10 6h1m-1 3h1"/><path stroke="#fd6a00" d="M10 7h1"/><path stroke="#fffe00" d="M12 7h1"/><path stroke="#000201" d="M15 7h1"/><path stroke="#a0a2a0" d="M1 8h1"/><path stroke="#c0c0c1" d="M7 8h1"/><path stroke="#ff6a01" d="M10 8h1"/><path stroke="#a0a1a0" d="M2 9h1"/><path stroke="#c2c1c0" d="M7 10h1"/><path stroke="#000200" d="M8 10h1"/><path stroke="#fdff00" d="M12 10h1"/><path stroke="#c0c0c2" d="M5 11h1"/><path stroke="#ffff01" d="M12 11h1"/><path stroke="#c0c2c0" d="M7 12h1"/><path stroke="#020003" d="M8 12h1"/></svg>