<svg xmlns="http://www.w3.org/2000/svg" shape-rendering="crispEdges" viewBox="0 -0.5 16 16"><path stroke="#000" d="M7 1h1M6 2h1m1 0h1M8 3h1M4 4h1m3 0h1M0 5h1m1 0h1m7 0h1M9 6h1M0 7h1m10 0h1M0 8h1m8 0h1M0 9h1m7 0h2M0 10h2m6 2h1m-1 1h1m-2 1h1"/><path stroke="silver" d="M7 2h1M6 3h2M6 4h1M4 5h1m1 0h1M4 6h1m1 0h2M6 7h1M4 8h1m1 0h1m0 1h1m-4 1h3m-1 1h2m-1 2h1"/><path stroke="#010000" d="M5 3h1m2 8h1m-4 1h1"/><path stroke="#c0c2c1" d="M5 4h1"/><path stroke="#c1c1c0" d="M7 4h1"/><path stroke="#000102" d="M1 5h1"/><path stroke="#000002" d="M3 5h1m4 2h1"/><path stroke="#c0c0c1" d="M5 5h1M4 9h1m2 3h1"/><path stroke="#c2c0c1" d="M7 5h1"/><path stroke="#000101" d="M8 5h1"/><path stroke="#010200" d="M0 6h1"/><path stroke="#a0a0a0" d="M1 6h1m0 2h2M1 9h1"/><path stroke="#a2a0a2" d="M2 6h1"/><path stroke="#a0a0a1" d="M3 6h1M3 7h1"/><path stroke="#c0c1c0" d="M5 6h1m1 1h1M5 8h1m1 0h1"/><path stroke="#000100" d="M8 6h1m2 3h1"/><path stroke="#fc6a00" d="M10 6h1"/><path stroke="#020000" d="M11 6h1M9 7h1m1 1h1m-6 5h1"/><path stroke="#a0a1a0" d="M1 7h1"/><path stroke="#a1a0a0" d="M2 7h1"/><path stroke="#c2c0c0" d="M4 7h1"/><path stroke="#c1c0c0" d="M5 7h1M5 9h1m1 1h1"/><path stroke="#ff6b00" d="M10 7h1"/><path stroke="#a3a0a0" d="M1 8h1"/><path stroke="#000200" d="M8 8h1m-6 2h1m4 0h1m-5 1h1"/><path stroke="#fe6a01" d="M10 8h1"/><path stroke="#a2a0a0" d="M2 9h1"/><path stroke="#a0a0a2" d="M3 9h1"/><path stroke="#c0c0c2" d="M6 9h1"/><path stroke="#ff6a00" d="M10 9h1"/><path stroke="#000001" d="M2 10h1"/><path stroke="#000003" d="M10 10h1"/><path stroke="#c0c2c0" d="M5 11h1"/><path stroke="#c3c0c0" d="M6 12h1"/></svg>